<svg xmlns="http://www.w3.org/2000/svg" width="24" height="24" viewBox="0 0 24 24" id="compare"><path d="M21.963,6.4073v1a1,1,0,0,1-1,1h-4.5a.5.5,0,0,0-.5.5v2.0686a.8.8,0,0,1-1.3658.5657L10.5286,7.473a.8.8,0,0,1,0-1.1314l4.0686-4.0687a.8.8,0,0,1,1.3658.5658V4.9073a.5.5,0,0,0,.5.5h4.5A1,1,0,0,1,21.963,6.4073Zm-12.56,6.0511a.8.8,0,0,0-1.3658.5657v2.0686a.5.5,0,0,1-.5.5h-4.5a1,1,0,0,0-1,1v1a1,1,0,0,0,1,1h4.5a.5.5,0,0,1,.5.5v2.0686a.8.8,0,0,0,1.3658.5658l4.0686-4.0687a.8.8,0,0,0,0-1.1314Z"></path></svg>